{"title":"American Ultra 2015 HDRip XViD CAM AUDIO-26k","uid":12557905,"size":1505588159,"categoryP":"video","categoryS":"movies","magnet":"?xt=urn:btih:a85e64617f8cd24f1ee25445a90626d1d2a9568e&amp;dn=American+Ultra+2015+HDRip+XViD+CAM+AUDIO-26k&amp;tr=udp%3A%2F%2Ftracker.leechers-paradise.org%3A6969&amp;tr=udp%3A%2F%2Fzer0day.ch%3A1337&amp;tr=udp%3A%2F%2Fopen.demonii.com%3A1337&amp;tr=udp%3A%2F%2Ftracker.coppersurfer.tk%3A6969&amp;tr=udp%3A%2F%2Fexodus.desync.com%3A6969","seeders":1,"leechers":0,"uploader":"makintos13","files":3,"time":1444662006,"description":"http://imgmak.com/BU \nhttp://imgmak.com/B3 \nhttp://imgmak.com/BG \nhttp://imgmak.com/BH \nhttp://imgmak.com/Bv\r\n\r\n::::::::::\r\n\r\nA stoner - who is in fact a government agent - is marked as a liability and targeted for extermination. But he's too well-trained and too high for them to handle.\r\n\r\nSources - VIDEO: 1080p Russian WEB ....Thanks :P\r\nAUDIO: A Friend ....Thanks :P\r\n\r\nComplete name : American.Ultra.2015.HDRip.XViD.CAM.AUDIO-26k.avi\r\nFormat : AVI\r\nFormat/Info : Audio Video Interleave\r\nFile size : 1.39 GiB\r\nDuration : 1h 35mn\r\nOverall bit rate : 2 075 Kbps\r\nWriting library : VirtualDub build 32839/release\r\n\r\nVideo\r\nID : 0\r\nFormat : MPEG-4 Visual\r\nFormat profile : Advanced   \r\nFormat settings, BVOP : 2\r\nFormat settings, QPel : Yes\r\nFormat settings, GMC : No warppoints\r\nFormat settings, Matrix : Default (H.263)\r\nMuxing mode : Packed bitstream\r\nCodec ID : XVID\r\nCodec ID/Hint : XviD\r\nDuration : 1h 35mn\r\nBit rate : 1 947 Kbps\r\nWidth : 720 pixels\r\nHeight : 384 pixels\r\nDisplay aspect ratio : 1.85:1\r\nFrame rate : 24.000 fps\r\nColor space : YUV\r\nChroma subsampling : 4:2:0\r\nBit depth : 8 bits\r\nScan type : Progressive\r\nCompression mode : Lossy\r\nBits/(Pixel*Frame) : 0.293\r\nStream size : 1.30 GiB (94%)\r\nWriting library : XviD 66\r\n\r\nAudio\r\nID : 1\r\nFormat : MPEG Audio\r\nFormat version : Version 1\r\nFormat profile : Layer 3\r\nMode : Joint stereo\r\nCodec ID : 55\r\nCodec ID/Hint : MP3\r\nDuration : 1h 28mn\r\nBit rate mode : Constant\r\nBit rate : 128 Kbps\r\nChannel(s) : 2 channels\r\nSampling rate : 44.1 KHz\r\nCompression mode : Lossy\r\nDelay relative to video : 1ms\r\nStream size : 81.2 MiB (6%)\r\nAlignment : Split accross interleaves\r\nInterleave, duration : 45 ms (1.08 video frame)\r\n\r\nNotes -\r\n\r\nTook vid made script to resize, denoise and adjust a few minor lil setings then sharpened it back up then\r\ntook NEW BETTER CAM AUDIO than whats out synced it, cleaned it up and remuxed back to our encode.\r\n\r\nWe released this late thinking MAYBE, just MAYBE sumbody had better audio for it then whats out guess we were\r\nwrong so we decided to go ahead and give it to ya with better audio..\r\n\r\nAnd for those out there taggin shit HQMIC.. its CAM audio no matter how u tag it so give it up with the HQ crap\r\nu starting to sound like CPG with ur releases.. and if ur gonna put &quot;Doin it right the 1st time&quot; please start\r\nactually doin it right instead of rushing to be the 1st to drop a crappy encoded vid with slightly above standard\r\n&quot;Direct LiNE'.. that in itself is a joke","torrent":{"xt":"urn:btih:a85e64617f8cd24f1ee25445a90626d1d2a9568e","amp;dn":"American+Ultra+2015+HDRip+XViD+CAM+AUDIO-26k","amp;tr":["udp%3A%2F%2Ftracker.leechers-paradise.org%3A6969","udp%3A%2F%2Fzer0day.ch%3A1337","udp%3A%2F%2Fopen.demonii.com%3A1337","udp%3A%2F%2Ftracker.coppersurfer.tk%3A6969","udp%3A%2F%2Fexodus.desync.com%3A6969"],"infoHash":"a85e64617f8cd24f1ee25445a90626d1d2a9568e","infoHashBuffer":{"type":"Buffer","data":[168,94,100,97,127,140,210,79,30,226,84,69,169,6,38,209,210,169,86,142]},"announce":[],"urlList":[]}}